<?xml version="1.0" encoding="UTF-8" standalone="no"?><!DOCTYPE svg PUBLIC "-//W3C//DTD SVG 1.1//EN" "http://www.w3.org/Graphics/SVG/1.1/DTD/svg11.dtd"><svg width="100%" height="100%" viewBox="0 0 540 540" version="1.1" xmlns="http://www.w3.org/2000/svg" xmlns:xlink="http://www.w3.org/1999/xlink" xml:space="preserve" xmlns:serif="http://www.serif.com/" style="fill-rule:evenodd;clip-rule:evenodd;stroke-linecap:round;stroke-linejoin:round;stroke-miterlimit:1.5;"><g id="Paper-Airplane-B" serif:id="Paper Airplane B"><path d="M246.098,496.557c-3.307,0.103 -6.631,0.159 -9.97,0.17c-0.552,0.002 -0.998,0.451 -0.997,1.003c0.002,0.552 0.452,0.999 1.004,0.997c3.358,-0.011 6.7,-0.067 10.026,-0.171c0.551,-0.018 0.985,-0.48 0.968,-1.031c-0.017,-0.552 -0.479,-0.986 -1.031,-0.968Zm-19.919,-0.021c-3.36,-0.15 -6.667,-0.39 -9.918,-0.715c-0.549,-0.055 -1.04,0.346 -1.095,0.895c-0.055,0.549 0.346,1.04 0.895,1.095c3.287,0.329 6.631,0.571 10.028,0.723c0.552,0.025 1.019,-0.402 1.044,-0.954c0.025,-0.551 -0.403,-1.019 -0.954,-1.044Zm39.814,-1.216c-3.295,0.313 -6.607,0.57 -9.936,0.776c-0.551,0.034 -0.971,0.509 -0.937,1.06c0.034,0.55 0.509,0.97 1.06,0.936c3.351,-0.207 6.685,-0.466 10.002,-0.781c0.55,-0.052 0.953,-0.541 0.901,-1.09c-0.052,-0.549 -0.54,-0.953 -1.09,-0.901Zm-59.588,-0.779c-3.319,-0.533 -6.572,-1.162 -9.755,-1.884c-0.538,-0.122 -1.074,0.216 -1.196,0.754c-0.122,0.538 0.215,1.074 0.754,1.196c3.223,0.732 6.518,1.369 9.88,1.908c0.544,0.088 1.058,-0.284 1.145,-0.829c0.088,-0.544 -0.284,-1.058 -0.828,-1.145Zm79.34,-1.817c-3.266,0.555 -6.549,1.047 -9.851,1.48c-0.547,0.072 -0.933,0.574 -0.861,1.121c0.071,0.548 0.574,0.934 1.121,0.862c3.327,-0.436 6.636,-0.932 9.926,-1.491c0.544,-0.093 0.911,-0.61 0.819,-1.154c-0.093,-0.544 -0.61,-0.911 -1.154,-0.818Zm19.476,-4.14c-3.213,0.827 -6.444,1.584 -9.694,2.273c-0.54,0.115 -0.885,0.646 -0.77,1.186c0.114,0.54 0.645,0.885 1.185,0.771c3.278,-0.696 6.537,-1.459 9.777,-2.293c0.535,-0.137 0.857,-0.683 0.719,-1.218c-0.137,-0.534 -0.683,-0.856 -1.217,-0.719Zm-118.173,1.546c-3.213,-0.967 -6.344,-2.038 -9.389,-3.209c-0.515,-0.198 -1.094,0.059 -1.292,0.574c-0.199,0.515 0.059,1.094 0.574,1.292c3.091,1.19 6.269,2.276 9.531,3.258c0.528,0.159 1.087,-0.141 1.246,-0.669c0.159,-0.529 -0.141,-1.087 -0.67,-1.246Zm137.202,-7.372c-3.13,1.119 -6.279,2.161 -9.447,3.131c-0.528,0.161 -0.825,0.721 -0.664,1.248c0.162,0.528 0.721,0.826 1.249,0.664c3.198,-0.978 6.377,-2.03 9.536,-3.16c0.519,-0.186 0.79,-0.758 0.605,-1.278c-0.186,-0.52 -0.759,-0.791 -1.279,-0.605Zm-155.697,0.236c-3.014,-1.449 -5.928,-3.007 -8.739,-4.673c-0.475,-0.281 -1.089,-0.124 -1.37,0.35c-0.281,0.475 -0.124,1.089 0.35,1.37c2.86,1.695 5.826,3.281 8.893,4.755c0.497,0.239 1.095,0.03 1.334,-0.468c0.239,-0.497 0.03,-1.095 -0.468,-1.334Zm174.089,-7.825c-3.015,1.419 -6.05,2.757 -9.104,4.016c-0.51,0.211 -0.754,0.796 -0.543,1.306c0.21,0.51 0.795,0.754 1.306,0.543c3.083,-1.272 6.148,-2.622 9.192,-4.055c0.5,-0.235 0.715,-0.831 0.48,-1.33c-0.235,-0.5 -0.832,-0.715 -1.331,-0.48Zm-191.107,-2.283c-2.692,-1.954 -5.266,-4.02 -7.719,-6.196c-0.413,-0.367 -1.045,-0.329 -1.411,0.084c-0.367,0.413 -0.329,1.045 0.084,1.412c2.501,2.219 5.126,4.326 7.871,6.319c0.447,0.324 1.073,0.224 1.397,-0.222c0.324,-0.447 0.225,-1.073 -0.222,-1.397Zm208.674,-7.055c-2.871,1.71 -5.761,3.337 -8.67,4.884c-0.487,0.259 -0.673,0.865 -0.413,1.352c0.259,0.487 0.865,0.673 1.352,0.413c2.937,-1.561 5.856,-3.204 8.754,-4.931c0.474,-0.283 0.63,-0.897 0.347,-1.371c-0.282,-0.474 -0.896,-0.63 -1.37,-0.347Zm16.587,-10.99c-2.703,1.98 -5.424,3.876 -8.164,5.692c-0.46,0.305 -0.586,0.926 -0.281,1.386c0.305,0.46 0.926,0.586 1.386,0.281c2.766,-1.833 5.513,-3.747 8.241,-5.745c0.445,-0.326 0.542,-0.953 0.216,-1.398c-0.326,-0.445 -0.953,-0.542 -1.398,-0.216Zm-240.036,4.914c-2.233,-2.432 -4.335,-4.975 -6.3,-7.625c-0.328,-0.443 -0.955,-0.537 -1.398,-0.208c-0.444,0.329 -0.537,0.956 -0.208,1.399c2.006,2.707 4.152,5.303 6.432,7.787c0.374,0.406 1.007,0.433 1.413,0.06c0.407,-0.373 0.434,-1.006 0.061,-1.413Zm255.547,-17.388c-2.521,2.218 -5.061,4.354 -7.617,6.411c-0.43,0.346 -0.498,0.976 -0.152,1.406c0.346,0.43 0.976,0.498 1.406,0.152c2.579,-2.075 5.14,-4.23 7.684,-6.467c0.414,-0.364 0.455,-0.996 0.091,-1.411c-0.365,-0.414 -0.997,-0.455 -1.412,-0.091Zm-267.31,1.519c-1.664,-2.823 -3.19,-5.748 -4.572,-8.772c-0.23,-0.502 -0.824,-0.723 -1.326,-0.493c-0.502,0.229 -0.723,0.823 -0.493,1.325c1.411,3.087 2.969,6.073 4.668,8.955c0.28,0.476 0.894,0.634 1.369,0.354c0.476,-0.28 0.634,-0.894 0.354,-1.369Zm281.709,-15.275c-2.338,2.419 -4.691,4.76 -7.06,7.026c-0.399,0.381 -0.414,1.014 -0.032,1.413c0.381,0.399 1.015,0.414 1.414,0.032c2.388,-2.283 4.76,-4.643 7.116,-7.081c0.383,-0.397 0.372,-1.03 -0.024,-1.414c-0.397,-0.383 -1.031,-0.373 -1.414,0.024Zm-289.937,-2.693c-1.051,-3.083 -1.967,-6.255 -2.741,-9.514c-0.128,-0.536 -0.667,-0.869 -1.204,-0.741c-0.537,0.128 -0.87,0.667 -0.742,1.204c0.79,3.321 1.723,6.554 2.794,9.697c0.178,0.522 0.747,0.802 1.269,0.624c0.523,-0.178 0.802,-0.747 0.624,-1.27Zm303.239,-12.138c-2.158,2.586 -4.33,5.098 -6.517,7.538c-0.369,0.411 -0.334,1.044 0.077,1.412c0.411,0.368 1.044,0.334 1.412,-0.077c2.203,-2.458 4.39,-4.988 6.563,-7.591c0.354,-0.424 0.297,-1.055 -0.127,-1.409c-0.424,-0.353 -1.055,-0.297 -1.408,0.127Zm-307.843,-7.114c-0.498,-3.259 -0.927,-6.549 -1.28,-9.871c-0.058,-0.549 -0.551,-0.947 -1.1,-0.889c-0.549,0.058 -0.947,0.551 -0.889,1.1c0.356,3.353 0.789,6.673 1.292,9.962c0.084,0.546 0.594,0.921 1.14,0.837c0.545,-0.083 0.921,-0.594 0.837,-1.139Zm320.103,-8.602c-1.988,2.721 -3.989,5.373 -6.004,7.958c-0.34,0.435 -0.262,1.064 0.173,1.403c0.436,0.34 1.065,0.262 1.404,-0.173c2.028,-2.601 4.042,-5.27 6.042,-8.008c0.325,-0.445 0.228,-1.071 -0.218,-1.397c-0.445,-0.326 -1.071,-0.228 -1.397,0.217Zm11.235,-16.457c-1.644,2.611 -3.299,5.141 -4.967,7.582c-0.168,0.247 -0.337,0.493 -0.506,0.739c-0.312,0.455 -0.196,1.078 0.259,1.39c0.455,0.313 1.078,0.197 1.39,-0.258c0.17,-0.247 0.339,-0.495 0.509,-0.743c1.681,-2.461 3.35,-5.012 5.008,-7.644c0.294,-0.467 0.153,-1.085 -0.314,-1.379c-0.467,-0.294 -1.085,-0.154 -1.379,0.313Zm-333.434,5.27c-0.192,-3.283 -0.307,-6.597 -0.339,-9.945c-0.005,-0.552 -0.458,-0.995 -1.01,-0.99c-0.552,0.005 -0.995,0.458 -0.99,1.01c0.033,3.38 0.149,6.727 0.342,10.041c0.032,0.551 0.506,0.973 1.057,0.941c0.551,-0.033 0.972,-0.506 0.94,-1.057Zm343.488,-22.483c-1.617,2.967 -3.249,5.865 -4.894,8.688c-0.278,0.477 -0.116,1.089 0.36,1.367c0.477,0.278 1.09,0.117 1.368,-0.36c1.654,-2.839 3.295,-5.754 4.922,-8.737c0.264,-0.485 0.085,-1.093 -0.399,-1.357c-0.485,-0.264 -1.093,-0.085 -1.357,0.399Zm-343.68,2.589c0.129,-3.278 0.338,-6.588 0.633,-9.93c0.049,-0.55 -0.358,-1.035 -0.908,-1.084c-0.549,-0.048 -1.035,0.358 -1.084,0.908c-0.298,3.375 -0.51,6.717 -0.64,10.028c-0.021,0.551 0.409,1.017 0.96,1.038c0.552,0.022 1.017,-0.408 1.039,-0.96Zm352.81,-20.33c-1.475,3.025 -2.963,6.002 -4.465,8.924c-0.252,0.491 -0.059,1.094 0.432,1.347c0.491,0.252 1.094,0.058 1.347,-0.433c1.508,-2.935 3.003,-5.924 4.483,-8.962c0.242,-0.496 0.036,-1.095 -0.46,-1.337c-0.496,-0.242 -1.096,-0.035 -1.337,0.461Zm-351.062,0.512c0.445,-3.245 0.972,-6.519 1.585,-9.825c0.101,-0.543 -0.258,-1.065 -0.801,-1.166c-0.542,-0.1 -1.065,0.259 -1.165,0.801c-0.619,3.337 -1.151,6.643 -1.6,9.918c-0.075,0.547 0.308,1.052 0.855,1.127c0.547,0.075 1.051,-0.308 1.126,-0.855Zm359.48,-18.614c-1.363,3.064 -2.74,6.096 -4.13,9.089c-0.233,0.5 -0.015,1.095 0.485,1.328c0.501,0.233 1.096,0.015 1.328,-0.486c1.396,-3.002 2.777,-6.044 4.145,-9.118c0.224,-0.505 -0.003,-1.096 -0.508,-1.32c-0.504,-0.225 -1.095,0.003 -1.32,0.507Zm-355.856,-0.954c0.742,-3.185 1.565,-6.4 2.472,-9.643c0.149,-0.532 -0.162,-1.084 -0.693,-1.233c-0.532,-0.148 -1.084,0.163 -1.233,0.694c-0.915,3.272 -1.745,6.515 -2.494,9.728c-0.125,0.538 0.21,1.076 0.747,1.201c0.538,0.125 1.076,-0.209 1.201,-0.747Zm363.707,-17.41c-1.273,3.092 -2.56,6.164 -3.861,9.21c-0.217,0.508 0.019,1.096 0.526,1.313c0.508,0.217 1.096,-0.019 1.313,-0.527c1.305,-3.054 2.595,-6.134 3.871,-9.234c0.21,-0.511 -0.034,-1.096 -0.544,-1.306c-0.51,-0.21 -1.095,0.034 -1.305,0.544Zm-358.351,-1.764c1.011,-3.109 2.1,-6.245 3.27,-9.408c0.191,-0.517 -0.073,-1.093 -0.591,-1.285c-0.518,-0.191 -1.093,0.074 -1.285,0.592c-1.179,3.188 -2.277,6.348 -3.296,9.482c-0.171,0.525 0.117,1.09 0.642,1.26c0.524,0.171 1.089,-0.116 1.26,-0.641Zm365.732,-16.798c-1.197,3.112 -2.41,6.215 -3.637,9.303c-0.204,0.513 0.047,1.095 0.56,1.299c0.513,0.203 1.095,-0.047 1.298,-0.56c1.23,-3.095 2.446,-6.205 3.645,-9.324c0.199,-0.515 -0.059,-1.095 -0.574,-1.293c-0.515,-0.198 -1.094,0.06 -1.292,0.575Zm-358.83,-1.886c1.248,-3.022 2.57,-6.068 3.968,-9.14c0.228,-0.502 0.006,-1.096 -0.496,-1.324c-0.502,-0.229 -1.096,-0.007 -1.325,0.496c-1.407,3.093 -2.739,6.161 -3.996,9.204c-0.211,0.51 0.032,1.096 0.543,1.306c0.51,0.211 1.095,-0.032 1.306,-0.542Zm365.813,-16.834c-1.132,3.127 -2.281,6.254 -3.445,9.377c-0.193,0.517 0.07,1.094 0.587,1.287c0.517,0.193 1.094,-0.071 1.286,-0.588c1.167,-3.129 2.318,-6.262 3.453,-9.395c0.188,-0.519 -0.081,-1.093 -0.6,-1.281c-0.519,-0.188 -1.093,0.081 -1.281,0.6Zm-357.565,-1.306c1.453,-2.931 2.976,-5.884 4.569,-8.86c0.261,-0.486 0.077,-1.093 -0.409,-1.353c-0.487,-0.261 -1.093,-0.077 -1.354,0.409c-1.603,2.995 -3.135,5.967 -4.598,8.915c-0.245,0.495 -0.043,1.095 0.452,1.34c0.494,0.246 1.095,0.043 1.34,-0.451Zm364.205,-17.542c-1.076,3.137 -2.169,6.285 -3.28,9.439c-0.183,0.52 0.091,1.092 0.611,1.275c0.521,0.183 1.093,-0.091 1.276,-0.611c1.112,-3.159 2.208,-6.312 3.285,-9.454c0.179,-0.522 -0.1,-1.091 -0.622,-1.27c-0.522,-0.179 -1.091,0.099 -1.27,0.621Zm-354.8,-0.037c1.629,-2.839 3.322,-5.699 5.082,-8.58c0.288,-0.471 0.139,-1.087 -0.332,-1.375c-0.471,-0.287 -1.087,-0.139 -1.375,0.333c-1.769,2.896 -3.472,5.772 -5.11,8.627c-0.274,0.479 -0.109,1.09 0.37,1.365c0.479,0.275 1.09,0.109 1.365,-0.37Zm361.135,-18.916c-1.024,3.141 -2.068,6.306 -3.132,9.489c-0.175,0.523 0.108,1.09 0.632,1.265c0.523,0.175 1.09,-0.108 1.265,-0.631c1.065,-3.187 2.111,-6.357 3.137,-9.504c0.171,-0.524 -0.116,-1.089 -0.641,-1.26c-0.525,-0.171 -1.09,0.116 -1.261,0.641Zm-165.09,7.813c-1.887,0.246 -3.805,0.447 -5.752,0.601c-1.265,0.099 -2.627,0.146 -4.081,0.143c-0.552,-0.002 -1.001,0.446 -1.002,0.997c-0.001,0.552 0.446,1.001 0.998,1.003c1.511,0.003 2.927,-0.046 4.242,-0.15c1.981,-0.156 3.933,-0.36 5.854,-0.611c0.547,-0.071 0.933,-0.574 0.862,-1.121c-0.072,-0.547 -0.574,-0.933 -1.121,-0.862Zm-19.707,0.146c-3.075,-0.326 -6.371,-0.778 -9.853,-1.341c-0.545,-0.088 -1.059,0.283 -1.147,0.828c-0.088,0.545 0.283,1.059 0.828,1.147c3.52,0.568 6.853,1.025 9.961,1.354c0.549,0.059 1.042,-0.34 1.1,-0.889c0.058,-0.549 -0.34,-1.041 -0.889,-1.099Zm38.99,-4.538c-3.063,1.024 -6.242,1.914 -9.532,2.66c-0.539,0.122 -0.877,0.658 -0.755,1.196c0.122,0.538 0.658,0.876 1.197,0.754c3.356,-0.76 6.599,-1.669 9.724,-2.713c0.523,-0.175 0.806,-0.742 0.631,-1.265c-0.175,-0.524 -0.742,-0.807 -1.265,-0.632Zm-58.649,1.427c-3.155,-0.623 -6.415,-1.313 -9.76,-2.059c-0.539,-0.121 -1.074,0.219 -1.194,0.758c-0.12,0.538 0.219,1.073 0.758,1.193c3.362,0.751 6.638,1.444 9.808,2.07c0.542,0.107 1.068,-0.246 1.175,-0.787c0.107,-0.542 -0.246,-1.068 -0.787,-1.175Zm-19.48,-4.33c-3.179,-0.772 -6.412,-1.586 -9.684,-2.433c-0.534,-0.138 -1.08,0.183 -1.218,0.718c-0.139,0.534 0.183,1.08 0.717,1.218c3.281,0.85 6.524,1.666 9.713,2.441c0.536,0.13 1.077,-0.199 1.208,-0.736c0.13,-0.536 -0.2,-1.077 -0.736,-1.208Zm-126.808,1.374c1.779,-2.751 3.618,-5.521 5.518,-8.31c0.311,-0.456 0.193,-1.079 -0.263,-1.39c-0.456,-0.31 -1.079,-0.192 -1.389,0.264c-1.91,2.803 -3.758,5.586 -5.545,8.35c-0.3,0.464 -0.167,1.083 0.296,1.383c0.464,0.3 1.083,0.167 1.383,-0.297Zm222.871,-6.713c-2.76,1.671 -5.674,3.215 -8.734,4.617c-0.502,0.23 -0.723,0.824 -0.493,1.326c0.23,0.501 0.824,0.722 1.325,0.492c3.132,-1.434 6.114,-3.014 8.938,-4.724c0.472,-0.285 0.623,-0.901 0.338,-1.373c-0.286,-0.472 -0.902,-0.623 -1.374,-0.338Zm-115.4,0.342c-3.192,-0.868 -6.405,-1.761 -9.625,-2.673c-0.531,-0.15 -1.084,0.159 -1.235,0.69c-0.15,0.531 0.159,1.084 0.69,1.234c3.227,0.914 6.447,1.809 9.645,2.679c0.533,0.145 1.083,-0.17 1.228,-0.703c0.145,-0.532 -0.17,-1.082 -0.703,-1.227Zm-19.226,-5.439c-3.204,-0.938 -6.401,-1.888 -9.578,-2.845c-0.528,-0.16 -1.087,0.14 -1.246,0.669c-0.159,0.528 0.141,1.086 0.669,1.246c3.182,0.958 6.384,1.91 9.593,2.85c0.53,0.155 1.086,-0.149 1.241,-0.679c0.155,-0.529 -0.149,-1.085 -0.679,-1.241Zm268.561,-9.127c-0.977,3.142 -1.977,6.322 -2.998,9.533c-0.168,0.526 0.123,1.089 0.649,1.256c0.526,0.167 1.089,-0.124 1.256,-0.65c1.024,-3.215 2.025,-6.399 3.003,-9.546c0.163,-0.527 -0.132,-1.087 -0.659,-1.251c-0.527,-0.164 -1.087,0.131 -1.251,0.658Zm-118.501,2.002c-2.242,2.318 -4.685,4.527 -7.318,6.605c-0.433,0.342 -0.508,0.971 -0.166,1.405c0.342,0.433 0.972,0.507 1.405,0.165c2.705,-2.135 5.214,-4.403 7.517,-6.785c0.384,-0.396 0.373,-1.03 -0.024,-1.414c-0.396,-0.383 -1.03,-0.373 -1.414,0.024Zm-169.196,1.363c-3.221,-0.995 -6.406,-1.991 -9.539,-2.981c-0.526,-0.166 -1.088,0.127 -1.255,0.653c-0.166,0.526 0.127,1.088 0.653,1.255c3.137,0.991 6.326,1.987 9.551,2.984c0.527,0.163 1.088,-0.133 1.25,-0.66c0.163,-0.528 -0.132,-1.088 -0.66,-1.251Zm-57.878,1.092c1.917,-2.637 3.95,-5.259 6.085,-7.86c0.35,-0.427 0.288,-1.057 -0.138,-1.407c-0.427,-0.351 -1.058,-0.288 -1.408,0.138c-2.16,2.632 -4.218,5.285 -6.157,7.953c-0.324,0.446 -0.225,1.072 0.221,1.397c0.447,0.324 1.073,0.225 1.397,-0.221Zm38.818,-7.111c-3.253,-1.048 -6.427,-2.081 -9.504,-3.092c-0.524,-0.172 -1.09,0.114 -1.262,0.638c-0.172,0.525 0.114,1.09 0.638,1.262c3.081,1.012 6.258,2.046 9.515,3.096c0.525,0.169 1.089,-0.12 1.258,-0.645c0.169,-0.526 -0.12,-1.09 -0.645,-1.259Zm199.667,-11.303c-1.445,2.889 -3.146,5.7 -5.092,8.409c-0.322,0.448 -0.219,1.073 0.229,1.395c0.448,0.322 1.074,0.22 1.396,-0.229c2.008,-2.796 3.764,-5.698 5.256,-8.681c0.247,-0.493 0.046,-1.094 -0.447,-1.341c-0.494,-0.247 -1.095,-0.047 -1.342,0.447Zm-227.594,2.06l-0.537,-0.182c-0.523,-0.177 -1.091,0.103 -1.269,0.625c-0.177,0.523 0.103,1.091 0.626,1.269c2.979,1.012 6.15,2.081 9.481,3.194c0.524,0.175 1.091,-0.108 1.266,-0.632c0.174,-0.523 -0.109,-1.09 -0.632,-1.265c-2.411,-0.805 -4.737,-1.588 -6.968,-2.342c2.122,-2.335 4.316,-4.65 6.569,-6.943c0.387,-0.393 0.382,-1.027 -0.012,-1.414c-0.393,-0.387 -1.027,-0.381 -1.414,0.012c-2.368,2.409 -4.671,4.843 -6.895,7.299c-0.102,0.112 -0.174,0.242 -0.215,0.379Zm340.494,-7.227c-0.931,3.135 -1.89,6.328 -2.875,9.571c-0.16,0.528 0.138,1.087 0.666,1.248c0.528,0.16 1.087,-0.139 1.248,-0.667c0.986,-3.246 1.946,-6.443 2.878,-9.583c0.157,-0.529 -0.145,-1.086 -0.674,-1.243c-0.529,-0.157 -1.086,0.145 -1.243,0.674Zm-350.487,3.806c-3.661,-1.265 -6.839,-2.375 -9.437,-3.289c-0.521,-0.183 -1.092,0.091 -1.275,0.611c-0.183,0.521 0.091,1.092 0.611,1.276c2.602,0.915 5.783,2.026 9.448,3.293c0.522,0.18 1.092,-0.097 1.272,-0.619c0.18,-0.522 -0.097,-1.092 -0.619,-1.272Zm243.145,-17.367c-0.34,3.24 -0.989,6.452 -1.932,9.607c-0.159,0.529 0.142,1.087 0.671,1.245c0.529,0.158 1.087,-0.143 1.245,-0.672c0.979,-3.274 1.652,-6.608 2.005,-9.971c0.058,-0.549 -0.341,-1.041 -0.89,-1.099c-0.549,-0.058 -1.041,0.341 -1.099,0.89Zm-217.504,7.533c2.401,-2.277 4.851,-4.528 7.338,-6.75c0.412,-0.367 0.447,-1 0.08,-1.412c-0.368,-0.411 -1.001,-0.447 -1.412,-0.079c-2.503,2.234 -4.967,4.499 -7.382,6.79c-0.401,0.379 -0.417,1.013 -0.037,1.413c0.379,0.401 1.013,0.417 1.413,0.038Zm330.42,-13.167c-0.885,3.118 -1.805,6.323 -2.758,9.606c-0.154,0.53 0.151,1.085 0.681,1.239c0.53,0.154 1.086,-0.152 1.239,-0.682c0.955,-3.286 1.876,-6.496 2.762,-9.617c0.151,-0.531 -0.158,-1.084 -0.689,-1.235c-0.531,-0.151 -1.084,0.158 -1.235,0.689Zm-315.555,-0.126c2.542,-2.153 5.108,-4.273 7.688,-6.359c0.429,-0.347 0.496,-0.977 0.149,-1.406c-0.347,-0.429 -0.977,-0.496 -1.406,-0.149c-2.592,2.095 -5.17,4.225 -7.724,6.388c-0.421,0.357 -0.473,0.988 -0.116,1.409c0.356,0.422 0.988,0.474 1.409,0.117Zm200.898,-13.651c0.929,3.189 1.531,6.405 1.819,9.621c0.049,0.549 0.536,0.956 1.086,0.906c0.549,-0.049 0.955,-0.535 0.906,-1.085c-0.3,-3.343 -0.925,-6.686 -1.89,-10.001c-0.155,-0.53 -0.71,-0.835 -1.24,-0.68c-0.53,0.154 -0.835,0.71 -0.681,1.239Zm120.002,-5.483c-0.833,3.074 -1.715,6.291 -2.644,9.638c-0.147,0.531 0.165,1.083 0.696,1.231c0.532,0.147 1.084,-0.165 1.231,-0.697c0.93,-3.35 1.813,-6.571 2.648,-9.649c0.144,-0.532 -0.171,-1.082 -0.704,-1.227c-0.532,-0.144 -1.082,0.171 -1.227,0.704Zm-305.387,6.582c2.651,-2.056 5.304,-4.071 7.944,-6.044c0.442,-0.33 0.533,-0.957 0.203,-1.4c-0.33,-0.442 -0.958,-0.533 -1.4,-0.202c-2.65,1.979 -5.312,4.002 -7.972,6.066c-0.437,0.338 -0.516,0.966 -0.178,1.403c0.338,0.436 0.967,0.515 1.403,0.177Zm176.627,-18.581c0.473,0.65 0.938,1.311 1.395,1.985c1.418,2.096 2.67,4.227 3.758,6.383c0.249,0.492 0.851,0.69 1.344,0.442c0.492,-0.249 0.69,-0.851 0.442,-1.344c-1.126,-2.23 -2.421,-4.434 -3.888,-6.602c-0.47,-0.693 -0.948,-1.374 -1.435,-2.042c-0.325,-0.446 -0.951,-0.544 -1.397,-0.219c-0.446,0.325 -0.544,0.951 -0.219,1.397Zm-160.636,6.627c2.745,-1.983 5.462,-3.914 8.136,-5.79c0.452,-0.317 0.561,-0.941 0.244,-1.393c-0.317,-0.452 -0.941,-0.562 -1.393,-0.245c-2.681,1.882 -5.406,3.818 -8.158,5.807c-0.448,0.323 -0.548,0.949 -0.225,1.396c0.323,0.447 0.949,0.548 1.396,0.225Zm294.508,-13.951c-0.758,2.943 -1.601,6.176 -2.525,9.669c-0.142,0.534 0.177,1.082 0.711,1.223c0.533,0.141 1.081,-0.178 1.222,-0.711c0.926,-3.498 1.77,-6.736 2.529,-9.682c0.138,-0.534 -0.184,-1.08 -0.719,-1.218c-0.534,-0.137 -1.08,0.185 -1.218,0.719Zm-278.16,2.476c1.161,-0.793 2.31,-1.574 3.446,-2.343c1.555,-1.053 3.181,-2.086 4.871,-3.094c0.474,-0.283 0.629,-0.897 0.347,-1.371c-0.283,-0.474 -0.898,-0.629 -1.372,-0.347c-1.723,1.029 -3.381,2.082 -4.968,3.156c-1.138,0.77 -2.289,1.553 -3.452,2.348c-0.456,0.312 -0.573,0.934 -0.262,1.39c0.312,0.456 0.935,0.573 1.39,0.261Zm130.528,-9.155c2.593,1.952 5.065,4.111 7.4,6.489c0.386,0.394 1.02,0.4 1.414,0.013c0.394,-0.387 0.399,-1.02 0.013,-1.414c-2.405,-2.45 -4.953,-4.674 -7.623,-6.686c-0.441,-0.332 -1.069,-0.244 -1.401,0.197c-0.332,0.441 -0.243,1.069 0.197,1.401Zm-113.487,-0.99c2.905,-1.418 5.938,-2.763 9.074,-4.02c0.513,-0.206 0.762,-0.788 0.557,-1.3c-0.206,-0.513 -0.788,-0.762 -1.301,-0.557c-3.183,1.276 -6.26,2.641 -9.207,4.08c-0.496,0.242 -0.702,0.841 -0.46,1.337c0.242,0.496 0.841,0.702 1.337,0.46Zm265.947,-11.716c0,-0 -0.815,3.479 -2.369,9.7c-0.134,0.535 0.192,1.079 0.728,1.212c0.535,0.134 1.079,-0.192 1.212,-0.727c1.559,-6.239 2.377,-9.729 2.377,-9.729c0.126,-0.537 -0.208,-1.076 -0.746,-1.202c-0.537,-0.126 -1.076,0.208 -1.202,0.746Zm-169.681,3.224c3.073,1.186 6.062,2.563 8.946,4.144c0.484,0.266 1.092,0.088 1.357,-0.396c0.266,-0.484 0.088,-1.092 -0.396,-1.357c-2.962,-1.624 -6.031,-3.039 -9.187,-4.257c-0.515,-0.199 -1.094,0.058 -1.293,0.573c-0.199,0.515 0.058,1.094 0.573,1.293Zm-77.853,1.095c3.116,-1.01 6.303,-1.93 9.544,-2.748c0.535,-0.135 0.86,-0.679 0.725,-1.214c-0.135,-0.536 -0.679,-0.86 -1.214,-0.725c-3.284,0.829 -6.515,1.761 -9.672,2.784c-0.525,0.17 -0.813,0.734 -0.643,1.26c0.17,0.525 0.735,0.813 1.26,0.643Zm58.739,-5.999c3.283,0.474 6.524,1.108 9.702,1.916c0.535,0.136 1.08,-0.188 1.216,-0.723c0.135,-0.535 -0.188,-1.08 -0.723,-1.216c-3.247,-0.825 -6.557,-1.473 -9.91,-1.956c-0.546,-0.079 -1.054,0.301 -1.133,0.847c-0.078,0.546 0.301,1.054 0.848,1.132Zm-39.49,1.143c3.248,-0.592 6.529,-1.075 9.823,-1.438c0.548,-0.06 0.945,-0.555 0.884,-1.103c-0.06,-0.549 -0.555,-0.945 -1.103,-0.885c-3.341,0.369 -6.668,0.858 -9.962,1.458c-0.543,0.099 -0.904,0.62 -0.805,1.163c0.099,0.543 0.62,0.904 1.163,0.805Zm19.718,-2.156c3.315,-0.112 6.626,-0.093 9.914,0.07c0.551,0.027 1.021,-0.398 1.048,-0.949c0.027,-0.551 -0.398,-1.021 -0.949,-1.048c-3.343,-0.166 -6.71,-0.186 -10.08,-0.072c-0.552,0.019 -0.985,0.482 -0.966,1.034c0.019,0.551 0.482,0.984 1.033,0.965Z" style="fill:url(#_Linear1);"/><g id="Paper-Airplane" serif:id="Paper Airplane"><path d="M162,120l-144,36l126,-0l18,-36Z" style="fill:#2dbec2;stroke:#125079;stroke-width:1px;"/><path d="M144,156l-126,-0l126,36l0,-36Z" style="fill:#2dbec2;stroke:#125079;stroke-width:1px;"/><path d="M135,174l-117,-18l126,36l-9,-18Z" style="fill:#2dbec2;stroke:#125079;stroke-width:1px;"/><path d="M134.993,174.014l-116.993,-18.014l87,78l29.993,-59.986Z" style="fill:#2dbec2;stroke:#125079;stroke-width:1px;"/></g></g><defs><linearGradient id="_Linear1" x1="0" y1="0" x2="1" y2="0" gradientUnits="userSpaceOnUse" gradientTransform="matrix(431.28,0,0,381.721,108.72,306.869)"><stop offset="0" style="stop-color:#2dbec2;stop-opacity:1"/><stop offset="0.6" style="stop-color:#2bb6bd;stop-opacity:1"/><stop offset="0.92" style="stop-color:#20889e;stop-opacity:1"/><stop offset="0.96" style="stop-color:#1c7994;stop-opacity:1"/><stop offset="1" style="stop-color:#125079;stop-opacity:1"/></linearGradient></defs></svg>