<?xml version="1.0" encoding="UTF-8" standalone="no"?><!DOCTYPE svg PUBLIC "-//W3C//DTD SVG 1.1//EN" "http://www.w3.org/Graphics/SVG/1.1/DTD/svg11.dtd"><svg width="100%" height="100%" viewBox="0 0 540 540" version="1.1" xmlns="http://www.w3.org/2000/svg" xmlns:xlink="http://www.w3.org/1999/xlink" xml:space="preserve" xmlns:serif="http://www.serif.com/" style="fill-rule:evenodd;clip-rule:evenodd;stroke-linecap:round;stroke-linejoin:round;stroke-miterlimit:1.5;"><g id="Paper-Airplane-A" serif:id="Paper Airplane A"><path d="M378.99,537.151c2.916,0.063 5.847,0.094 8.791,0.094c0.413,-0 0.824,-0.001 1.234,-0.003c0.552,-0.003 0.998,-0.453 0.996,-1.005c-0.003,-0.552 -0.453,-0.998 -1.005,-0.995c-0.407,0.002 -0.816,0.003 -1.225,0.003c-2.93,-0 -5.846,-0.031 -8.748,-0.094c-0.552,-0.012 -1.01,0.427 -1.022,0.979c-0.012,0.551 0.427,1.009 0.979,1.021Zm20.063,-0.164c3.423,-0.16 6.764,-0.393 10.021,-0.696c0.55,-0.051 0.955,-0.539 0.903,-1.088c-0.051,-0.55 -0.538,-0.954 -1.088,-0.903c-3.228,0.3 -6.537,0.531 -9.929,0.689c-0.552,0.026 -0.978,0.494 -0.953,1.046c0.026,0.551 0.495,0.978 1.046,0.952Zm-40.091,-0.789c3.317,0.248 6.653,0.45 10.008,0.609c0.551,0.026 1.02,-0.4 1.046,-0.951c0.026,-0.552 -0.4,-1.021 -0.952,-1.047c-3.336,-0.158 -6.654,-0.359 -9.954,-0.605c-0.55,-0.041 -1.03,0.372 -1.071,0.923c-0.041,0.55 0.372,1.03 0.923,1.071Zm-19.949,-2.067c3.3,0.441 6.62,0.834 9.96,1.179c0.549,0.057 1.04,-0.342 1.097,-0.891c0.057,-0.549 -0.343,-1.041 -0.892,-1.098c-3.319,-0.343 -6.62,-0.734 -9.9,-1.173c-0.547,-0.073 -1.051,0.312 -1.124,0.859c-0.073,0.547 0.312,1.05 0.859,1.124Zm80.042,0.977c3.4,-0.493 6.701,-1.068 9.907,-1.721c0.541,-0.11 0.89,-0.639 0.78,-1.18c-0.11,-0.54 -0.639,-0.89 -1.18,-0.78c-3.169,0.646 -6.433,1.215 -9.794,1.702c-0.547,0.079 -0.926,0.587 -0.847,1.133c0.08,0.547 0.587,0.926 1.134,0.846Zm-99.832,-4.265c3.269,0.653 6.559,1.253 9.869,1.803c0.545,0.09 1.06,-0.279 1.15,-0.823c0.091,-0.545 -0.278,-1.06 -0.822,-1.15c-3.289,-0.546 -6.558,-1.143 -9.805,-1.791c-0.541,-0.108 -1.068,0.243 -1.177,0.785c-0.108,0.541 0.244,1.068 0.785,1.176Zm119.531,0.229c3.322,-0.899 6.528,-1.89 9.621,-2.966c0.522,-0.181 0.798,-0.751 0.616,-1.273c-0.181,-0.521 -0.752,-0.797 -1.273,-0.616c-3.05,1.061 -6.211,2.038 -9.487,2.925c-0.533,0.144 -0.848,0.693 -0.704,1.226c0.144,0.533 0.694,0.848 1.227,0.704Zm-139.061,-4.831c3.22,0.879 6.462,1.702 9.726,2.471c0.537,0.126 1.076,-0.207 1.202,-0.745c0.127,-0.537 -0.207,-1.076 -0.744,-1.202c-3.241,-0.763 -6.46,-1.58 -9.658,-2.453c-0.532,-0.146 -1.082,0.169 -1.228,0.701c-0.145,0.532 0.169,1.083 0.702,1.228Zm158.065,-1.807c3.153,-1.38 6.171,-2.859 9.057,-4.429c0.485,-0.264 0.664,-0.871 0.401,-1.356c-0.264,-0.485 -0.872,-0.665 -1.357,-0.401c-2.837,1.544 -5.804,2.997 -8.903,4.354c-0.506,0.221 -0.737,0.811 -0.515,1.317c0.221,0.506 0.811,0.736 1.317,0.515Zm-177.22,-4.184c3.152,1.116 6.326,2.173 9.523,3.173c0.526,0.164 1.088,-0.13 1.253,-0.656c0.164,-0.527 -0.13,-1.088 -0.657,-1.253c-3.173,-0.992 -6.323,-2.041 -9.451,-3.149c-0.52,-0.184 -1.092,0.088 -1.276,0.609c-0.185,0.52 0.088,1.092 0.608,1.276Zm-18.649,-7.423c3.061,1.358 6.146,2.655 9.253,3.892c0.513,0.204 1.095,-0.047 1.299,-0.56c0.204,-0.512 -0.046,-1.094 -0.559,-1.298c-3.084,-1.227 -6.144,-2.514 -9.181,-3.862c-0.505,-0.224 -1.096,0.004 -1.32,0.508c-0.224,0.505 0.004,1.096 0.508,1.32Zm213.558,1.955c2.85,-1.913 5.547,-3.926 8.095,-6.032c0.426,-0.351 0.486,-0.982 0.134,-1.408c-0.352,-0.425 -0.982,-0.485 -1.408,-0.133c-2.497,2.064 -5.141,4.037 -7.935,5.913c-0.459,0.307 -0.581,0.929 -0.273,1.387c0.307,0.459 0.929,0.581 1.387,0.273Zm-231.57,-10.816c2.949,1.599 5.922,3.135 8.918,4.609c0.496,0.243 1.096,0.039 1.339,-0.456c0.244,-0.495 0.039,-1.095 -0.456,-1.339c-2.973,-1.462 -5.922,-2.986 -8.848,-4.572c-0.485,-0.263 -1.093,-0.083 -1.356,0.402c-0.263,0.486 -0.083,1.093 0.403,1.356Zm247.106,-2.045c2.39,-2.436 4.614,-4.966 6.679,-7.58c0.342,-0.433 0.268,-1.062 -0.165,-1.405c-0.433,-0.342 -1.063,-0.268 -1.405,0.165c-2.02,2.559 -4.198,5.035 -6.536,7.42c-0.387,0.394 -0.381,1.027 0.013,1.414c0.394,0.386 1.028,0.38 1.414,-0.014Zm-264.36,-8.215c2.818,1.83 5.66,3.597 8.525,5.301c0.474,0.282 1.088,0.126 1.371,-0.348c0.282,-0.475 0.126,-1.089 -0.349,-1.371c-2.843,-1.691 -5.662,-3.443 -8.458,-5.259c-0.463,-0.301 -1.083,-0.169 -1.383,0.294c-0.301,0.462 -0.169,1.082 0.294,1.383Zm-16.394,-11.582c2.671,2.047 5.366,4.03 8.084,5.95c0.451,0.319 1.075,0.211 1.394,-0.239c0.318,-0.451 0.211,-1.076 -0.24,-1.394c-2.697,-1.906 -5.371,-3.874 -8.022,-5.904c-0.438,-0.336 -1.067,-0.253 -1.402,0.186c-0.336,0.438 -0.253,1.066 0.186,1.401Zm293.259,3.963c1.801,-2.867 3.437,-5.813 4.911,-8.826c0.243,-0.496 0.038,-1.095 -0.458,-1.338c-0.496,-0.243 -1.095,-0.037 -1.338,0.458c-1.444,2.95 -3.045,5.835 -4.809,8.642c-0.293,0.468 -0.152,1.085 0.315,1.379c0.467,0.294 1.085,0.153 1.379,-0.315Zm-308.723,-16.756c2.515,2.242 5.053,4.422 7.612,6.54c0.426,0.352 1.056,0.293 1.408,-0.132c0.352,-0.426 0.293,-1.057 -0.132,-1.408c-2.541,-2.103 -5.06,-4.267 -7.557,-6.493c-0.412,-0.367 -1.044,-0.331 -1.412,0.081c-0.367,0.412 -0.331,1.044 0.081,1.412Zm317.603,-1.355c1.164,-3.157 2.171,-6.371 3.025,-9.629c0.14,-0.534 -0.179,-1.081 -0.713,-1.221c-0.534,-0.14 -1.081,0.18 -1.221,0.714c-0.838,3.195 -1.826,6.347 -2.968,9.444c-0.191,0.518 0.075,1.093 0.593,1.284c0.517,0.191 1.093,-0.074 1.284,-0.592Zm-332.096,-12.523c2.353,2.416 4.728,4.771 7.124,7.066c0.399,0.382 1.032,0.368 1.414,-0.03c0.382,-0.399 0.368,-1.033 -0.03,-1.414c-2.38,-2.28 -4.739,-4.619 -7.076,-7.017c-0.385,-0.396 -1.019,-0.404 -1.414,-0.019c-0.395,0.385 -0.404,1.019 -0.018,1.414Zm337.227,-6.972c0.551,-3.307 0.957,-6.647 1.223,-10.008c0.044,-0.55 -0.368,-1.032 -0.918,-1.076c-0.55,-0.044 -1.032,0.368 -1.076,0.918c-0.262,3.304 -0.661,6.587 -1.202,9.838c-0.091,0.544 0.278,1.06 0.822,1.15c0.545,0.091 1.06,-0.277 1.151,-0.822Zm-350.744,-7.852c2.192,2.565 4.404,5.072 6.637,7.522c0.372,0.408 1.005,0.437 1.413,0.065c0.408,-0.371 0.437,-1.004 0.065,-1.412c-2.218,-2.434 -4.417,-4.926 -6.594,-7.475c-0.359,-0.419 -0.991,-0.469 -1.41,-0.11c-0.42,0.358 -0.47,0.99 -0.111,1.41Zm-12.558,-15.639c2.034,2.693 4.088,5.33 6.161,7.913c0.346,0.43 0.976,0.499 1.406,0.154c0.43,-0.346 0.499,-0.976 0.154,-1.406c-2.061,-2.568 -4.103,-5.19 -6.125,-7.867c-0.333,-0.44 -0.96,-0.528 -1.401,-0.195c-0.44,0.333 -0.528,0.96 -0.195,1.401Zm364.91,3.412c-0.006,-3.349 -0.143,-6.708 -0.407,-10.066c-0.043,-0.55 -0.525,-0.962 -1.075,-0.918c-0.551,0.043 -0.962,0.525 -0.919,1.075c0.26,3.306 0.395,6.614 0.401,9.913c0.001,0.552 0.45,0.999 1.002,0.998c0.552,-0.001 0.999,-0.45 0.998,-1.002Zm-376.547,-19.743c1.884,2.801 3.786,5.549 5.706,8.245c0.321,0.449 0.946,0.554 1.395,0.234c0.45,-0.32 0.555,-0.945 0.235,-1.395c-1.91,-2.681 -3.802,-5.414 -5.676,-8.2c-0.308,-0.458 -0.93,-0.58 -1.388,-0.272c-0.458,0.308 -0.58,0.93 -0.272,1.388Zm374.983,-0.327c-0.506,-3.313 -1.13,-6.614 -1.869,-9.893c-0.121,-0.539 -0.657,-0.877 -1.195,-0.756c-0.539,0.122 -0.877,0.657 -0.756,1.196c0.728,3.233 1.344,6.488 1.843,9.755c0.083,0.545 0.593,0.921 1.139,0.837c0.546,-0.083 0.921,-0.593 0.838,-1.139Zm-385.748,-16.586c1.742,2.891 3.501,5.732 5.277,8.523c0.296,0.466 0.915,0.603 1.381,0.307c0.465,-0.296 0.603,-0.915 0.307,-1.38c-1.768,-2.778 -3.518,-5.605 -5.252,-8.482c-0.284,-0.473 -0.9,-0.625 -1.372,-0.34c-0.473,0.285 -0.626,0.9 -0.341,1.372Zm381.33,-3.045c-0.961,-3.218 -2.031,-6.402 -3.206,-9.542c-0.193,-0.517 -0.769,-0.78 -1.286,-0.587c-0.517,0.194 -0.78,0.77 -0.587,1.287c1.159,3.098 2.214,6.24 3.162,9.414c0.158,0.529 0.716,0.83 1.244,0.672c0.529,-0.158 0.83,-0.716 0.673,-1.244Zm-391.278,-14.354c1.609,2.965 3.234,5.883 4.876,8.755c0.274,0.479 0.885,0.646 1.364,0.372c0.479,-0.274 0.646,-0.885 0.372,-1.364c-1.634,-2.859 -3.252,-5.765 -4.855,-8.717c-0.263,-0.485 -0.87,-0.665 -1.355,-0.402c-0.486,0.263 -0.666,0.871 -0.402,1.356Zm384.23,-4.492c-1.39,-3.066 -2.88,-6.077 -4.467,-9.021c-0.262,-0.486 -0.869,-0.668 -1.355,-0.406c-0.486,0.262 -0.668,0.869 -0.406,1.355c1.565,2.904 3.036,5.874 4.407,8.898c0.227,0.502 0.821,0.726 1.323,0.498c0.503,-0.228 0.726,-0.821 0.498,-1.324Zm-393.422,-13.315c1.487,3.027 2.989,6.01 4.505,8.95c0.253,0.49 0.857,0.683 1.347,0.43c0.491,-0.253 0.684,-0.857 0.43,-1.347c-1.51,-2.928 -3.006,-5.899 -4.486,-8.915c-0.243,-0.495 -0.843,-0.7 -1.339,-0.457c-0.495,0.244 -0.7,0.843 -0.457,1.339Zm383.907,-4.398c-1.743,-2.864 -3.51,-5.699 -5.299,-8.505c-0.297,-0.465 -0.916,-0.602 -1.381,-0.305c-0.465,0.296 -0.602,0.915 -0.305,1.38c1.782,2.795 3.541,5.618 5.276,8.47c0.287,0.471 0.903,0.621 1.375,0.334c0.471,-0.287 0.621,-0.902 0.334,-1.374Zm-392.398,-13.75c1.373,3.079 2.761,6.116 4.162,9.112c0.234,0.5 0.829,0.716 1.329,0.483c0.5,-0.234 0.716,-0.83 0.482,-1.33c-1.396,-2.985 -2.778,-6.012 -4.146,-9.08c-0.225,-0.504 -0.817,-0.73 -1.321,-0.506c-0.504,0.225 -0.731,0.817 -0.506,1.321Zm381.623,-3.147c-1.861,-2.787 -3.745,-5.546 -5.65,-8.276c-0.316,-0.453 -0.94,-0.564 -1.392,-0.248c-0.453,0.316 -0.564,0.94 -0.248,1.393c1.898,2.718 3.773,5.465 5.626,8.241c0.307,0.459 0.928,0.583 1.387,0.277c0.459,-0.307 0.583,-0.928 0.277,-1.387Zm-389.508,-15.257c1.175,2.809 2.36,5.623 3.554,8.441c0.11,0.26 0.221,0.52 0.331,0.78c0.216,0.508 0.804,0.744 1.312,0.528c0.508,-0.216 0.744,-0.804 0.528,-1.311c-0.11,-0.259 -0.22,-0.518 -0.33,-0.778c-1.193,-2.814 -2.376,-5.625 -3.55,-8.432c-0.213,-0.509 -0.799,-0.749 -1.308,-0.536c-0.51,0.213 -0.75,0.799 -0.537,1.308Zm378.038,-1.177c-1.973,-2.707 -3.968,-5.385 -5.985,-8.036c-0.334,-0.439 -0.962,-0.525 -1.401,-0.191c-0.439,0.335 -0.525,0.962 -0.191,1.402c2.009,2.64 3.996,5.307 5.961,8.003c0.325,0.446 0.951,0.545 1.397,0.219c0.446,-0.325 0.544,-0.951 0.219,-1.397Zm-385.667,-17.321c1.252,3.078 2.516,6.165 3.791,9.258c0.211,0.511 0.796,0.754 1.306,0.544c0.51,-0.211 0.754,-0.796 0.543,-1.306c-1.274,-3.091 -2.537,-6.174 -3.787,-9.25c-0.208,-0.511 -0.792,-0.757 -1.303,-0.549c-0.512,0.207 -0.758,0.791 -0.55,1.303Zm373.536,1.372c-2.08,-2.624 -4.182,-5.221 -6.303,-7.789c-0.351,-0.426 -0.982,-0.486 -1.407,-0.135c-0.426,0.352 -0.486,0.982 -0.135,1.408c2.113,2.559 4.206,5.145 6.278,7.758c0.343,0.433 0.972,0.505 1.405,0.162c0.432,-0.343 0.505,-0.972 0.162,-1.404Zm-380.984,-19.944c1.221,3.088 2.455,6.187 3.702,9.295c0.205,0.512 0.788,0.761 1.3,0.556c0.512,-0.206 0.761,-0.789 0.556,-1.301c-1.245,-3.105 -2.478,-6.2 -3.699,-9.286c-0.203,-0.513 -0.784,-0.765 -1.297,-0.562c-0.514,0.203 -0.765,0.785 -0.562,1.298Zm368.227,4.491c-2.181,-2.539 -4.382,-5.051 -6.601,-7.537c-0.368,-0.411 -1.001,-0.447 -1.412,-0.079c-0.412,0.367 -0.448,1 -0.08,1.412c2.21,2.476 4.403,4.978 6.576,7.508c0.359,0.418 0.991,0.466 1.41,0.107c0.419,-0.36 0.467,-0.992 0.107,-1.411Zm-375.502,-23.131c1.192,3.097 2.398,6.206 3.616,9.328c0.201,0.515 0.781,0.769 1.295,0.568c0.514,-0.2 0.769,-0.781 0.568,-1.295c-1.217,-3.119 -2.421,-6.226 -3.613,-9.319c-0.198,-0.516 -0.777,-0.773 -1.292,-0.574c-0.515,0.198 -0.772,0.777 -0.574,1.292Zm362.158,8.185c-2.276,-2.454 -4.569,-4.882 -6.879,-7.284c-0.383,-0.397 -1.017,-0.41 -1.414,-0.027c-0.398,0.383 -0.41,1.016 -0.028,1.414c2.302,2.393 4.587,4.812 6.854,7.256c0.375,0.405 1.009,0.429 1.413,0.054c0.405,-0.375 0.429,-1.009 0.054,-1.413Zm-13.889,-14.44c-2.363,-2.369 -4.741,-4.712 -7.136,-7.031c-0.396,-0.384 -1.03,-0.374 -1.414,0.023c-0.384,0.396 -0.374,1.03 0.023,1.414c2.386,2.31 4.756,4.645 7.11,7.006c0.39,0.391 1.024,0.392 1.415,0.002c0.39,-0.39 0.391,-1.023 0.002,-1.414Zm-355.376,-12.449c1.164,3.104 2.341,6.224 3.533,9.36c0.196,0.516 0.774,0.776 1.29,0.58c0.516,-0.196 0.775,-0.774 0.579,-1.29c-1.19,-3.133 -2.367,-6.251 -3.529,-9.352c-0.194,-0.517 -0.771,-0.779 -1.288,-0.585c-0.517,0.194 -0.779,0.77 -0.585,1.287Zm340.984,-1.488c-2.442,-2.285 -4.899,-4.546 -7.37,-6.783c-0.409,-0.37 -1.042,-0.339 -1.413,0.071c-0.37,0.409 -0.338,1.042 0.071,1.412c2.463,2.229 4.912,4.483 7.346,6.76c0.403,0.378 1.036,0.356 1.413,-0.047c0.377,-0.402 0.356,-1.036 -0.047,-1.413Zm-347.929,-17.276c1.136,3.11 2.287,6.24 3.453,9.389c0.191,0.518 0.767,0.783 1.285,0.591c0.517,-0.191 0.782,-0.767 0.59,-1.285c-1.164,-3.146 -2.314,-6.274 -3.449,-9.382c-0.189,-0.518 -0.764,-0.785 -1.282,-0.596c-0.519,0.19 -0.786,0.764 -0.597,1.283Zm333.079,3.832c-2.515,-2.204 -5.043,-4.384 -7.584,-6.542c-0.421,-0.357 -1.052,-0.305 -1.41,0.115c-0.357,0.421 -0.305,1.053 0.115,1.41c2.533,2.151 5.054,4.324 7.561,6.521c0.415,0.364 1.047,0.322 1.411,-0.093c0.364,-0.415 0.322,-1.047 -0.093,-1.411Zm-15.267,-12.966c-2.581,-2.125 -5.173,-4.228 -7.777,-6.31c-0.431,-0.344 -1.06,-0.274 -1.405,0.157c-0.345,0.431 -0.275,1.061 0.156,1.406c2.596,2.075 5.181,4.172 7.755,6.291c0.426,0.351 1.056,0.29 1.407,-0.136c0.351,-0.426 0.29,-1.057 -0.136,-1.408Zm-324.598,-9.688c1.108,3.115 2.233,6.255 3.374,9.418c0.187,0.519 0.76,0.788 1.279,0.601c0.52,-0.187 0.789,-0.761 0.602,-1.28c-1.14,-3.16 -2.263,-6.297 -3.371,-9.41c-0.185,-0.52 -0.758,-0.792 -1.278,-0.607c-0.519,0.185 -0.791,0.758 -0.606,1.278Zm180.15,4.086c3.336,0.123 6.683,0.191 10.029,0.209c0.552,0.002 1.003,-0.443 1.006,-0.995c0.003,-0.552 -0.443,-1.003 -0.995,-1.005c-3.325,-0.018 -6.651,-0.085 -9.966,-0.208c-0.551,-0.02 -1.016,0.411 -1.036,0.962c-0.021,0.552 0.411,1.016 0.962,1.037Zm20.057,0.117c3.358,-0.077 6.702,-0.2 10.019,-0.36c0.551,-0.027 0.977,-0.496 0.95,-1.047c-0.027,-0.552 -0.496,-0.978 -1.047,-0.951c-3.3,0.16 -6.627,0.281 -9.968,0.358c-0.552,0.013 -0.989,0.471 -0.977,1.023c0.013,0.552 0.471,0.989 1.023,0.977Zm-40.075,-1.611c3.297,0.383 6.634,0.696 9.997,0.943c0.551,0.041 1.031,-0.373 1.071,-0.924c0.041,-0.55 -0.373,-1.03 -0.924,-1.07c-3.335,-0.246 -6.644,-0.555 -9.913,-0.936c-0.548,-0.063 -1.045,0.33 -1.109,0.878c-0.063,0.549 0.33,1.045 0.878,1.109Zm60.098,0.649c3.379,-0.242 6.713,-0.519 9.988,-0.824c0.549,-0.052 0.954,-0.539 0.903,-1.089c-0.052,-0.549 -0.539,-0.954 -1.089,-0.903c-3.26,0.304 -6.58,0.58 -9.944,0.821c-0.551,0.039 -0.966,0.518 -0.926,1.069c0.039,0.55 0.518,0.965 1.068,0.926Zm19.954,-1.854c3.411,-0.387 6.732,-0.798 9.944,-1.225c0.547,-0.072 0.933,-0.575 0.86,-1.123c-0.073,-0.547 -0.576,-0.932 -1.123,-0.859c-3.2,0.425 -6.509,0.834 -9.906,1.219c-0.548,0.063 -0.943,0.558 -0.881,1.107c0.062,0.548 0.558,0.943 1.106,0.881Zm-99.871,-2.14c3.22,0.738 6.515,1.383 9.869,1.944c0.544,0.091 1.06,-0.278 1.151,-0.822c0.091,-0.544 -0.277,-1.06 -0.822,-1.151c-3.314,-0.554 -6.57,-1.191 -9.751,-1.92c-0.538,-0.123 -1.075,0.213 -1.198,0.751c-0.124,0.538 0.213,1.075 0.751,1.198Zm159.092,-7.339c0.005,0.296 0.142,0.587 0.396,0.779c2.652,2.003 5.295,4.027 7.928,6.073c0.436,0.338 1.065,0.259 1.403,-0.176c0.339,-0.436 0.26,-1.065 -0.176,-1.404c-2.451,-1.903 -4.91,-3.789 -7.377,-5.656l7.746,-1.38c0.544,-0.097 0.906,-0.617 0.809,-1.16c-0.097,-0.544 -0.616,-0.906 -1.16,-0.809c-3.175,0.565 -6.484,1.155 -9.845,1.754c-0.543,0.097 -0.906,0.616 -0.809,1.16c0.093,0.518 0.57,0.871 1.085,0.819Zm-39.358,6.842c3.487,-0.53 6.794,-1.068 9.89,-1.599c0.544,-0.093 0.91,-0.611 0.817,-1.155c-0.093,-0.544 -0.611,-0.91 -1.155,-0.816c-3.084,0.529 -6.379,1.065 -9.853,1.593c-0.545,0.083 -0.921,0.593 -0.838,1.139c0.083,0.545 0.593,0.921 1.139,0.838Zm-138.97,-5.472c3.05,1.247 6.225,2.37 9.505,3.377c0.527,0.162 1.087,-0.135 1.249,-0.662c0.162,-0.528 -0.134,-1.088 -0.662,-1.25c-3.221,-0.989 -6.339,-2.092 -9.335,-3.317c-0.511,-0.209 -1.095,0.037 -1.304,0.547c-0.209,0.511 0.036,1.096 0.547,1.305Zm158.713,2.128c3.205,-0.571 6.512,-1.16 9.845,-1.754c0.544,-0.097 0.906,-0.617 0.809,-1.16c-0.096,-0.544 -0.616,-0.906 -1.16,-0.809c-3.333,0.594 -6.64,1.183 -9.844,1.754c-0.544,0.097 -0.906,0.616 -0.81,1.16c0.097,0.543 0.617,0.906 1.16,0.809Zm-286.423,-14.283c1.082,3.119 2.181,6.268 3.297,9.445c0.183,0.521 0.755,0.795 1.275,0.612c0.521,-0.183 0.795,-0.754 0.612,-1.275c-1.115,-3.175 -2.213,-6.321 -3.294,-9.437c-0.181,-0.522 -0.751,-0.798 -1.273,-0.618c-0.521,0.181 -0.797,0.751 -0.617,1.273Zm110.028,2.439c1.207,0.844 2.447,1.679 3.72,2.506c1.555,1.01 3.165,1.969 4.828,2.88c0.484,0.266 1.093,0.088 1.358,-0.396c0.265,-0.484 0.088,-1.092 -0.397,-1.357c-1.618,-0.887 -3.186,-1.821 -4.699,-2.804c-1.255,-0.815 -2.476,-1.638 -3.664,-2.468c-0.452,-0.316 -1.076,-0.206 -1.392,0.247c-0.317,0.452 -0.206,1.076 0.246,1.392Zm215.775,4.828c3.747,-0.668 7.094,-1.264 9.845,-1.754c0.543,-0.097 0.906,-0.617 0.809,-1.16c-0.097,-0.544 -0.616,-0.906 -1.16,-0.809c-2.75,0.49 -6.097,1.086 -9.845,1.754c-0.543,0.096 -0.906,0.616 -0.809,1.16c0.097,0.543 0.617,0.905 1.16,0.809Zm-26.123,-3.34c-2.637,-2.023 -5.271,-4.064 -7.9,-6.117c-0.435,-0.339 -1.064,-0.262 -1.404,0.173c-0.339,0.435 -0.262,1.064 0.173,1.404c2.634,2.056 5.272,4.1 7.914,6.127c0.438,0.336 1.066,0.253 1.402,-0.185c0.336,-0.438 0.253,-1.066 -0.185,-1.402Zm-205.094,-14.443c2.263,2.311 4.737,4.595 7.426,6.84c0.424,0.353 1.055,0.297 1.409,-0.127c0.354,-0.424 0.297,-1.055 -0.127,-1.409c-2.636,-2.2 -5.061,-4.438 -7.279,-6.703c-0.386,-0.394 -1.02,-0.401 -1.414,-0.015c-0.395,0.387 -0.401,1.02 -0.015,1.414Zm189.336,2.152c-2.616,-2.067 -5.227,-4.14 -7.833,-6.212c-0.432,-0.344 -1.062,-0.272 -1.405,0.16c-0.344,0.432 -0.272,1.061 0.16,1.405c2.608,2.074 5.22,4.148 7.838,6.216c0.433,0.342 1.062,0.268 1.404,-0.165c0.342,-0.433 0.269,-1.062 -0.164,-1.404Zm-290.402,-10.565c1.054,3.121 2.128,6.278 3.221,9.471c0.179,0.522 0.748,0.801 1.27,0.622c0.522,-0.179 0.801,-0.748 0.622,-1.27c-1.092,-3.19 -2.165,-6.345 -3.218,-9.464c-0.177,-0.522 -0.745,-0.804 -1.268,-0.627c-0.523,0.177 -0.804,0.745 -0.627,1.268Zm88.811,-7.65c1.586,2.819 3.453,5.64 5.608,8.441c0.336,0.438 0.965,0.52 1.402,0.183c0.438,-0.336 0.52,-0.965 0.183,-1.402c-2.094,-2.722 -3.908,-5.463 -5.45,-8.203c-0.27,-0.481 -0.88,-0.652 -1.362,-0.381c-0.481,0.27 -0.651,0.88 -0.381,1.362Zm185.935,5.775c-2.615,-2.083 -5.226,-4.159 -7.83,-6.224c-0.433,-0.343 -1.062,-0.27 -1.405,0.162c-0.343,0.433 -0.27,1.062 0.163,1.405c2.603,2.064 5.212,4.14 7.826,6.221c0.432,0.344 1.062,0.273 1.405,-0.159c0.344,-0.432 0.273,-1.062 -0.159,-1.405Zm-281.077,-17.105c1.028,3.12 2.076,6.287 3.147,9.496c0.174,0.524 0.741,0.807 1.265,0.632c0.523,-0.174 0.807,-0.741 0.632,-1.265c-1.07,-3.207 -2.118,-6.37 -3.144,-9.488c-0.173,-0.525 -0.738,-0.81 -1.262,-0.638c-0.525,0.173 -0.81,0.739 -0.638,1.263Zm265.393,4.683c-2.638,-2.07 -5.27,-4.122 -7.896,-6.149c-0.437,-0.337 -1.065,-0.256 -1.402,0.181c-0.338,0.436 -0.257,1.065 0.18,1.402c2.622,2.024 5.249,4.073 7.883,6.14c0.435,0.34 1.064,0.265 1.404,-0.17c0.341,-0.434 0.265,-1.063 -0.169,-1.404Zm-176.866,-12.502c0.423,3.247 1.216,6.56 2.395,9.906c0.183,0.52 0.755,0.794 1.275,0.61c0.521,-0.183 0.795,-0.755 0.611,-1.275c-1.13,-3.208 -1.892,-6.385 -2.298,-9.499c-0.071,-0.547 -0.573,-0.934 -1.121,-0.863c-0.547,0.072 -0.933,0.574 -0.862,1.121Zm161.014,0.277c-2.687,-2.026 -5.366,-4.02 -8.038,-5.974c-0.445,-0.325 -1.072,-0.228 -1.397,0.217c-0.326,0.446 -0.229,1.072 0.216,1.398c2.664,1.948 5.336,3.936 8.014,5.956c0.441,0.333 1.068,0.245 1.401,-0.196c0.332,-0.441 0.244,-1.068 -0.196,-1.401Zm-255.721,-11.487c0.998,3.117 2.022,6.291 3.071,9.52c0.171,0.525 0.735,0.813 1.26,0.643c0.525,-0.171 0.813,-0.736 0.642,-1.26c-1.048,-3.227 -2.071,-6.399 -3.069,-9.514c-0.168,-0.525 -0.732,-0.815 -1.257,-0.647c-0.526,0.169 -0.816,0.732 -0.647,1.258Zm97.122,-8.932c-1.272,3.147 -2.118,6.471 -2.517,9.924c-0.063,0.548 0.331,1.045 0.879,1.108c0.548,0.063 1.045,-0.33 1.108,-0.879c0.378,-3.272 1.179,-6.422 2.384,-9.404c0.207,-0.512 -0.041,-1.095 -0.552,-1.302c-0.512,-0.206 -1.096,0.041 -1.302,0.553Zm142.42,8.605c-2.764,-1.942 -5.52,-3.834 -8.267,-5.667c-0.459,-0.307 -1.081,-0.183 -1.387,0.276c-0.306,0.459 -0.183,1.081 0.277,1.387c2.734,1.825 5.476,3.708 8.228,5.641c0.451,0.317 1.076,0.208 1.393,-0.244c0.317,-0.451 0.208,-1.075 -0.244,-1.393Zm-245.572,-18.751c0.969,3.108 1.967,6.29 2.996,9.545c0.166,0.526 0.728,0.818 1.255,0.652c0.526,-0.166 0.818,-0.729 0.652,-1.255c-1.028,-3.252 -2.026,-6.432 -2.994,-9.537c-0.164,-0.527 -0.725,-0.822 -1.252,-0.657c-0.527,0.164 -0.821,0.725 -0.657,1.252Zm228.884,7.636c-2.877,-1.8 -5.745,-3.527 -8.601,-5.171c-0.479,-0.275 -1.09,-0.11 -1.366,0.368c-0.275,0.478 -0.11,1.09 0.368,1.365c2.836,1.633 5.682,3.347 8.539,5.133c0.468,0.293 1.085,0.151 1.378,-0.317c0.293,-0.468 0.15,-1.086 -0.318,-1.378Zm-113.45,-13.636c-2.762,2.182 -5.166,4.617 -7.194,7.261c-0.336,0.438 -0.253,1.066 0.185,1.402c0.438,0.336 1.066,0.253 1.402,-0.185c1.93,-2.516 4.218,-4.832 6.847,-6.909c0.433,-0.342 0.507,-0.971 0.165,-1.404c-0.342,-0.433 -0.972,-0.507 -1.405,-0.165Zm96.037,3.645c-3.031,-1.567 -6.048,-3.029 -9.053,-4.376c-0.503,-0.226 -1.095,-0 -1.321,0.503c-0.226,0.504 -0,1.096 0.503,1.322c2.971,1.332 5.955,2.778 8.952,4.328c0.49,0.253 1.094,0.061 1.348,-0.429c0.253,-0.491 0.061,-1.094 -0.429,-1.348Zm-18.369,-8.188c-3.215,-1.184 -6.413,-2.221 -9.594,-3.096c-0.533,-0.147 -1.083,0.166 -1.23,0.698c-0.146,0.532 0.167,1.083 0.699,1.23c3.128,0.861 6.273,1.88 9.433,3.045c0.518,0.19 1.094,-0.075 1.284,-0.593c0.191,-0.518 -0.074,-1.093 -0.592,-1.284Zm-198.976,-8.584c0.934,3.088 1.907,6.28 2.917,9.57c0.162,0.527 0.722,0.824 1.25,0.662c0.527,-0.162 0.824,-0.722 0.662,-1.249c-1.01,-3.288 -1.981,-6.476 -2.915,-9.562c-0.16,-0.528 -0.718,-0.827 -1.247,-0.667c-0.528,0.159 -0.827,0.718 -0.667,1.246Zm139.45,4.105c-3.409,0.972 -6.579,2.187 -9.499,3.616c-0.496,0.243 -0.701,0.842 -0.458,1.338c0.242,0.496 0.842,0.701 1.337,0.458c2.819,-1.379 5.879,-2.551 9.169,-3.488c0.53,-0.151 0.838,-0.705 0.687,-1.236c-0.151,-0.531 -0.705,-0.839 -1.236,-0.688Zm40.1,-0.854c-3.432,-0.635 -6.762,-1.1 -9.986,-1.407c-0.549,-0.053 -1.038,0.351 -1.09,0.9c-0.052,0.55 0.351,1.038 0.901,1.091c3.168,0.301 6.44,0.759 9.812,1.382c0.542,0.101 1.064,-0.258 1.165,-0.801c0.1,-0.543 -0.259,-1.065 -0.802,-1.165Zm-20.074,-1.86c-3.52,0.029 -6.887,0.262 -10.093,0.683c-0.548,0.071 -0.933,0.574 -0.862,1.121c0.072,0.547 0.575,0.933 1.122,0.862c3.129,-0.411 6.415,-0.638 9.849,-0.666c0.552,-0.004 0.996,-0.456 0.992,-1.008c-0.005,-0.552 -0.456,-0.996 -1.008,-0.992Zm-165.187,-20.567c0.891,3.043 1.836,6.244 2.834,9.594c0.158,0.529 0.715,0.831 1.244,0.673c0.529,-0.157 0.83,-0.715 0.673,-1.243c-0.997,-3.348 -1.941,-6.546 -2.832,-9.587c-0.155,-0.529 -0.711,-0.833 -1.24,-0.678c-0.53,0.155 -0.834,0.711 -0.679,1.241Zm-5.529,-19.232c0.82,2.911 1.734,6.125 2.74,9.623c0.152,0.531 0.707,0.838 1.237,0.685c0.531,-0.152 0.838,-0.707 0.685,-1.237c-1.005,-3.495 -1.918,-6.705 -2.737,-9.613c-0.15,-0.531 -0.702,-0.841 -1.234,-0.691c-0.531,0.149 -0.841,0.702 -0.691,1.233Zm-5.289,-19.308c0,-0 0.88,3.384 2.606,9.668c0.146,0.533 0.697,0.846 1.229,0.7c0.532,-0.146 0.846,-0.697 0.699,-1.229c-1.721,-6.268 -2.598,-9.643 -2.598,-9.643c-0.139,-0.534 -0.685,-0.855 -1.22,-0.716c-0.534,0.139 -0.855,0.685 -0.716,1.22Z" style="fill:url(#_Linear1);"/><g id="Paper-Airplane" serif:id="Paper Airplane"><path d="M378,120l144,36l-126,-0l-18,-36Z" style="fill:#2dbec2;stroke:#125079;stroke-width:1px;"/><path d="M396,156l126,-0l-126,36l-0,-36Z" style="fill:#2dbec2;stroke:#125079;stroke-width:1px;"/><path d="M405,174l117,-18l-126,36l9,-18Z" style="fill:#2dbec2;stroke:#125079;stroke-width:1px;"/><path d="M405.007,174.014l116.993,-18.014l-87,78l-29.993,-59.986Z" style="fill:#2dbec2;stroke:#125079;stroke-width:1px;"/></g></g><defs><linearGradient id="_Linear1" x1="0" y1="0" x2="1" y2="0" gradientUnits="userSpaceOnUse" gradientTransform="matrix(-518.107,5.15931e-14,-4.98143e-14,-500.245,518.107,286.122)"><stop offset="0" style="stop-color:#2dbec2;stop-opacity:1"/><stop offset="0.62" style="stop-color:#2ab4bb;stop-opacity:1"/><stop offset="0.95" style="stop-color:#1b7692;stop-opacity:1"/><stop offset="1" style="stop-color:#125079;stop-opacity:1"/></linearGradient></defs></svg>