<?xml version="1.0" encoding="UTF-8" standalone="no"?><!DOCTYPE svg PUBLIC "-//W3C//DTD SVG 1.1//EN" "http://www.w3.org/Graphics/SVG/1.1/DTD/svg11.dtd"><svg width="100%" height="100%" viewBox="0 0 144 144" version="1.1" xmlns="http://www.w3.org/2000/svg" xmlns:xlink="http://www.w3.org/1999/xlink" xml:space="preserve" xmlns:serif="http://www.serif.com/" style="fill-rule:evenodd;clip-rule:evenodd;stroke-linejoin:round;stroke-miterlimit:2;"><g id="Paper-Airplane--white-" serif:id="Paper Airplane (white)"><path d="M-0,18l144,36l-87,78l-57,-114Z" style="fill:#fff;"/><path d="M-0,18l144,36l-87,78l-57,-114Zm1.867,1.497c-0,0 123.502,30.876 140.063,35.016c-10.438,9.358 -75.835,67.99 -84.622,75.868l-55.441,-110.884Z"/><path d="M18,54l126,-0l-126,36l-0,-36Z" style="fill:#fff;"/><path d="M18,54l126,-0l-126,36l-0,-36Zm1,1l117.86,-0c-0,0 -105.05,30.014 -117.86,33.674l0,-33.674Z"/><path d="M27,72l117,-18l-126,36l9,-18Z" style="fill:#fff;"/><path d="M27,72l117,-18l-126,36l9,-18Zm0.663,0.91l100.778,-15.504c-0,-0 -108.53,31.008 -108.53,31.008l7.752,-15.504Z"/><path d="M27.007,72.014l116.993,-18.014l-87,78l-29.993,-59.986Z" style="fill:#fff;"/><path d="M27.007,72.014l116.993,-18.014l-87,78l-29.993,-59.986Zm1.508,0.78c-0,-0 93.383,-14.379 112.314,-17.294c-0,0 -83.521,74.881 -83.521,74.881l-28.793,-57.587Z"/></g></svg>